<mxfile host="65bd71144e">
    <diagram name="Page-1" id="4Fe1I5dRGEgEyMsVQMym">
        <mxGraphModel dx="1058" dy="481" grid="1" gridSize="10" guides="1" tooltips="1" connect="1" arrows="1" fold="1" page="1" pageScale="1" pageWidth="827" pageHeight="1169" math="0" shadow="0">
            <root>
                <mxCell id="0"/>
                <mxCell id="1" parent="0"/>
                <mxCell id="2" value="" style="shape=link;html=1;fillColor=#e51400;strokeColor=#B20000;" parent="1" edge="1">
                    <mxGeometry width="100" relative="1" as="geometry">
                        <mxPoint x="633" y="216" as="sourcePoint"/>
                        <mxPoint x="633" y="696" as="targetPoint"/>
                    </mxGeometry>
                </mxCell>
                <mxCell id="28" value="12v" style="edgeLabel;html=1;align=center;verticalAlign=middle;resizable=0;points=[];" parent="2" vertex="1" connectable="0">
                    <mxGeometry x="-0.8547" y="-1" relative="1" as="geometry">
                        <mxPoint as="offset"/>
                    </mxGeometry>
                </mxCell>
                <mxCell id="5" value="Nerf Gun 6v" style="triangle;whiteSpace=wrap;html=1;fontSize=14;spacingLeft=0;spacingRight=35;" parent="1" vertex="1">
                    <mxGeometry x="213" y="796" width="130" height="120" as="geometry"/>
                </mxCell>
                <mxCell id="8" value="" style="endArrow=none;html=1;fontSize=14;exitX=1;exitY=0.5;exitDx=0;exitDy=0;fillColor=#e51400;strokeColor=#B20000;" parent="1" source="6" edge="1">
                    <mxGeometry width="50" height="50" relative="1" as="geometry">
                        <mxPoint x="593" y="237.58999999999997" as="sourcePoint"/>
                        <mxPoint x="633" y="217.58999999999997" as="targetPoint"/>
                    </mxGeometry>
                </mxCell>
                <mxCell id="9" value="Servo Motor &lt;br&gt;4.8 - 6v" style="shape=hexagon;perimeter=hexagonPerimeter2;whiteSpace=wrap;html=1;fixedSize=1;fontSize=14;spacingLeft=20;spacingRight=20;" parent="1" vertex="1">
                    <mxGeometry x="143" y="376" width="150" height="80" as="geometry"/>
                </mxCell>
                <mxCell id="10" value="" style="shape=link;html=1;fillColor=#e51400;strokeColor=#B20000;exitX=0.5;exitY=1;exitDx=0;exitDy=0;" parent="1" source="13" edge="1">
                    <mxGeometry width="100" relative="1" as="geometry">
                        <mxPoint x="413" y="786" as="sourcePoint"/>
                        <mxPoint x="413" y="1216" as="targetPoint"/>
                    </mxGeometry>
                </mxCell>
                <mxCell id="11" value="6v" style="edgeLabel;html=1;align=center;verticalAlign=middle;resizable=0;points=[];" parent="10" vertex="1" connectable="0">
                    <mxGeometry x="-0.9062" relative="1" as="geometry">
                        <mxPoint as="offset"/>
                    </mxGeometry>
                </mxCell>
                <mxCell id="12" value="Stepper Motor 12v" style="shape=hexagon;perimeter=hexagonPerimeter2;whiteSpace=wrap;html=1;fixedSize=1;fontSize=14;spacingLeft=10;spacingRight=10;" parent="1" vertex="1">
                    <mxGeometry x="353" y="536" width="120" height="80" as="geometry"/>
                </mxCell>
                <mxCell id="13" value="Buck Converter 12v =&amp;gt; 6v" style="shape=process;whiteSpace=wrap;html=1;backgroundOutline=1;" parent="1" vertex="1">
                    <mxGeometry x="353" y="666" width="120" height="60" as="geometry"/>
                </mxCell>
                <mxCell id="14" value="" style="endArrow=none;html=1;exitX=1;exitY=0.5;exitDx=0;exitDy=0;" parent="1" source="13" edge="1">
                    <mxGeometry width="50" height="50" relative="1" as="geometry">
                        <mxPoint x="583" y="736" as="sourcePoint"/>
                        <mxPoint x="633" y="696" as="targetPoint"/>
                    </mxGeometry>
                </mxCell>
                <mxCell id="15" value="" style="endArrow=none;html=1;fontSize=14;exitX=1;exitY=0.5;exitDx=0;exitDy=0;fillColor=#e51400;strokeColor=#B20000;" parent="1" edge="1">
                    <mxGeometry width="50" height="50" relative="1" as="geometry">
                        <mxPoint x="473" y="575.5" as="sourcePoint"/>
                        <mxPoint x="633" y="575.5" as="targetPoint"/>
                    </mxGeometry>
                </mxCell>
                <mxCell id="16" value="" style="shape=link;html=1;fillColor=#60a917;strokeColor=#2D7600;" parent="1" edge="1">
                    <mxGeometry width="100" relative="1" as="geometry">
                        <mxPoint x="73" y="216" as="sourcePoint"/>
                        <mxPoint x="73" y="1216" as="targetPoint"/>
                    </mxGeometry>
                </mxCell>
                <mxCell id="29" value="GND" style="edgeLabel;html=1;align=center;verticalAlign=middle;resizable=0;points=[];" parent="16" vertex="1" connectable="0">
                    <mxGeometry x="-0.9386" y="-3" relative="1" as="geometry">
                        <mxPoint as="offset"/>
                    </mxGeometry>
                </mxCell>
                <mxCell id="18" value="" style="endArrow=none;html=1;fontSize=14;fillColor=#e51400;strokeColor=#B20000;" parent="1" edge="1">
                    <mxGeometry width="50" height="50" relative="1" as="geometry">
                        <mxPoint x="343" y="856" as="sourcePoint"/>
                        <mxPoint x="413" y="856" as="targetPoint"/>
                    </mxGeometry>
                </mxCell>
                <mxCell id="19" value="" style="endArrow=none;html=1;fontSize=14;fillColor=#e51400;strokeColor=#B20000;" parent="1" edge="1">
                    <mxGeometry width="50" height="50" relative="1" as="geometry">
                        <mxPoint x="333" y="415.5" as="sourcePoint"/>
                        <mxPoint x="393" y="416" as="targetPoint"/>
                        <Array as="points">
                            <mxPoint x="293" y="416"/>
                        </Array>
                    </mxGeometry>
                </mxCell>
                <mxCell id="20" value="" style="endArrow=none;html=1;fontSize=14;fillColor=#60a917;strokeColor=#2D7600;entryX=0;entryY=0.5;entryDx=0;entryDy=0;" parent="1" target="9" edge="1">
                    <mxGeometry width="50" height="50" relative="1" as="geometry">
                        <mxPoint x="73" y="415.5" as="sourcePoint"/>
                        <mxPoint x="143" y="415.5" as="targetPoint"/>
                    </mxGeometry>
                </mxCell>
                <mxCell id="21" value="" style="endArrow=none;html=1;fontSize=14;fillColor=#60a917;strokeColor=#2D7600;entryX=0;entryY=0.5;entryDx=0;entryDy=0;" parent="1" target="5" edge="1">
                    <mxGeometry width="50" height="50" relative="1" as="geometry">
                        <mxPoint x="73" y="855.5" as="sourcePoint"/>
                        <mxPoint x="193" y="856" as="targetPoint"/>
                    </mxGeometry>
                </mxCell>
                <mxCell id="22" value="" style="endArrow=none;html=1;fontSize=14;fillColor=#60a917;strokeColor=#2D7600;entryX=0;entryY=0.5;entryDx=0;entryDy=0;" parent="1" target="13" edge="1">
                    <mxGeometry width="50" height="50" relative="1" as="geometry">
                        <mxPoint x="73" y="695.5" as="sourcePoint"/>
                        <mxPoint x="213" y="696" as="targetPoint"/>
                    </mxGeometry>
                </mxCell>
                <mxCell id="23" value="" style="endArrow=none;html=1;fontSize=14;fillColor=#60a917;strokeColor=#2D7600;entryX=0;entryY=0.5;entryDx=0;entryDy=0;" parent="1" edge="1">
                    <mxGeometry width="50" height="50" relative="1" as="geometry">
                        <mxPoint x="73" y="575.5" as="sourcePoint"/>
                        <mxPoint x="353" y="576" as="targetPoint"/>
                    </mxGeometry>
                </mxCell>
                <mxCell id="24" value="" style="endArrow=none;html=1;fontSize=14;fillColor=#60a917;strokeColor=#2D7600;entryX=0;entryY=0.5;entryDx=0;entryDy=0;startArrow=none;" parent="1" source="6" edge="1">
                    <mxGeometry width="50" height="50" relative="1" as="geometry">
                        <mxPoint x="73" y="217.08999999999997" as="sourcePoint"/>
                        <mxPoint x="353" y="217.58999999999997" as="targetPoint"/>
                    </mxGeometry>
                </mxCell>
                <mxCell id="25" value="" style="endArrow=none;html=1;fontSize=14;fillColor=#60a917;strokeColor=#2D7600;entryX=0;entryY=0.5;entryDx=0;entryDy=0;" parent="1" target="6" edge="1">
                    <mxGeometry width="50" height="50" relative="1" as="geometry">
                        <mxPoint x="73" y="217.08999999999992" as="sourcePoint"/>
                        <mxPoint x="353" y="217.58999999999992" as="targetPoint"/>
                    </mxGeometry>
                </mxCell>
                <mxCell id="6" value="Arrduino&lt;br&gt;VIN in 7-12v" style="rounded=0;whiteSpace=wrap;html=1;fontSize=14;" parent="1" vertex="1">
                    <mxGeometry x="293" y="177.58999999999997" width="120" height="80" as="geometry"/>
                </mxCell>
                <mxCell id="26" value="" style="shape=link;html=1;fillColor=#e51400;strokeColor=#B20000;" parent="1" edge="1">
                    <mxGeometry width="100" relative="1" as="geometry">
                        <mxPoint x="393" y="257.59000000000003" as="sourcePoint"/>
                        <mxPoint x="393" y="476" as="targetPoint"/>
                    </mxGeometry>
                </mxCell>
                <mxCell id="30" value="5v" style="edgeLabel;html=1;align=center;verticalAlign=middle;resizable=0;points=[];fontSize=15;" parent="26" vertex="1" connectable="0">
                    <mxGeometry x="-0.6575" y="1" relative="1" as="geometry">
                        <mxPoint as="offset"/>
                    </mxGeometry>
                </mxCell>
            </root>
        </mxGraphModel>
    </diagram>
</mxfile>